<mxfile host="app.diagrams.net" modified="2021-07-08T09:22:27.487Z" agent="5.0 (Windows NT 10.0; Win64; x64) AppleWebKit/537.36 (KHTML, like Gecko) Chrome/91.0.4472.124 Safari/537.36" etag="ZxFPHSb-cHt07RqgZ-ra" version="14.7.9" type="github">
  <diagram id="NWKRzz2wo-hGmxD3HCCU" name="第 1 页">
    <mxGraphModel dx="1422" dy="772" grid="1" gridSize="10" guides="1" tooltips="1" connect="1" arrows="1" fold="1" page="1" pageScale="1" pageWidth="1600" pageHeight="900" math="0" shadow="0">
      <root>
        <mxCell id="0" />
        <mxCell id="1" parent="0" />
        <mxCell id="6P-eKquRAxCvKUDHWeDS-2" value="publish_record" style="swimlane;fontStyle=0;childLayout=stackLayout;horizontal=1;startSize=26;horizontalStack=0;resizeParent=1;resizeParentMax=0;resizeLast=0;collapsible=1;marginBottom=0;align=center;fontSize=14;" vertex="1" parent="1">
          <mxGeometry x="460" y="260" width="160" height="176" as="geometry" />
        </mxCell>
        <mxCell id="6P-eKquRAxCvKUDHWeDS-3" value="id" style="text;strokeColor=none;fillColor=none;spacingLeft=4;spacingRight=4;overflow=hidden;rotatable=0;points=[[0,0.5],[1,0.5]];portConstraint=eastwest;fontSize=12;" vertex="1" parent="6P-eKquRAxCvKUDHWeDS-2">
          <mxGeometry y="26" width="160" height="30" as="geometry" />
        </mxCell>
        <mxCell id="6P-eKquRAxCvKUDHWeDS-5" value="obj_id" style="text;strokeColor=none;fillColor=none;spacingLeft=4;spacingRight=4;overflow=hidden;rotatable=0;points=[[0,0.5],[1,0.5]];portConstraint=eastwest;fontSize=12;" vertex="1" parent="6P-eKquRAxCvKUDHWeDS-2">
          <mxGeometry y="56" width="160" height="30" as="geometry" />
        </mxCell>
        <mxCell id="6P-eKquRAxCvKUDHWeDS-4" value="obj_type" style="text;strokeColor=none;fillColor=none;spacingLeft=4;spacingRight=4;overflow=hidden;rotatable=0;points=[[0,0.5],[1,0.5]];portConstraint=eastwest;fontSize=12;" vertex="1" parent="6P-eKquRAxCvKUDHWeDS-2">
          <mxGeometry y="86" width="160" height="30" as="geometry" />
        </mxCell>
        <mxCell id="6P-eKquRAxCvKUDHWeDS-6" value="user_id" style="text;strokeColor=none;fillColor=none;spacingLeft=4;spacingRight=4;overflow=hidden;rotatable=0;points=[[0,0.5],[1,0.5]];portConstraint=eastwest;fontSize=12;" vertex="1" parent="6P-eKquRAxCvKUDHWeDS-2">
          <mxGeometry y="116" width="160" height="30" as="geometry" />
        </mxCell>
        <mxCell id="6P-eKquRAxCvKUDHWeDS-8" value="create_time" style="text;strokeColor=none;fillColor=none;spacingLeft=4;spacingRight=4;overflow=hidden;rotatable=0;points=[[0,0.5],[1,0.5]];portConstraint=eastwest;fontSize=12;" vertex="1" parent="6P-eKquRAxCvKUDHWeDS-2">
          <mxGeometry y="146" width="160" height="30" as="geometry" />
        </mxCell>
        <mxCell id="6P-eKquRAxCvKUDHWeDS-9" value="查询" style="rounded=0;whiteSpace=wrap;html=1;fontSize=20;" vertex="1" parent="1">
          <mxGeometry x="210" y="301" width="120" height="60" as="geometry" />
        </mxCell>
        <mxCell id="6P-eKquRAxCvKUDHWeDS-19" style="edgeStyle=orthogonalEdgeStyle;rounded=0;orthogonalLoop=1;jettySize=auto;html=1;exitX=0;exitY=0.5;exitDx=0;exitDy=0;fontSize=20;entryX=1;entryY=0.5;entryDx=0;entryDy=0;" edge="1" parent="1" source="6P-eKquRAxCvKUDHWeDS-20" target="6P-eKquRAxCvKUDHWeDS-5">
          <mxGeometry relative="1" as="geometry">
            <mxPoint x="750" y="331" as="sourcePoint" />
          </mxGeometry>
        </mxCell>
        <mxCell id="6P-eKquRAxCvKUDHWeDS-20" value="问答表" style="rounded=0;whiteSpace=wrap;html=1;fontSize=20;" vertex="1" parent="1">
          <mxGeometry x="960" y="301" width="120" height="60" as="geometry" />
        </mxCell>
        <mxCell id="6P-eKquRAxCvKUDHWeDS-21" value="文章表" style="rounded=0;whiteSpace=wrap;html=1;fontSize=20;" vertex="1" parent="1">
          <mxGeometry x="960" y="130" width="120" height="60" as="geometry" />
        </mxCell>
        <mxCell id="6P-eKquRAxCvKUDHWeDS-22" value="驿视频表" style="rounded=0;whiteSpace=wrap;html=1;fontSize=20;" vertex="1" parent="1">
          <mxGeometry x="960" y="470" width="120" height="60" as="geometry" />
        </mxCell>
        <mxCell id="6P-eKquRAxCvKUDHWeDS-23" style="edgeStyle=orthogonalEdgeStyle;rounded=0;orthogonalLoop=1;jettySize=auto;html=1;exitX=0;exitY=0.5;exitDx=0;exitDy=0;entryX=1;entryY=0.5;entryDx=0;entryDy=0;fontSize=20;" edge="1" parent="1" source="6P-eKquRAxCvKUDHWeDS-21" target="6P-eKquRAxCvKUDHWeDS-5">
          <mxGeometry relative="1" as="geometry" />
        </mxCell>
        <mxCell id="6P-eKquRAxCvKUDHWeDS-24" style="edgeStyle=orthogonalEdgeStyle;rounded=0;orthogonalLoop=1;jettySize=auto;html=1;exitX=0;exitY=0.5;exitDx=0;exitDy=0;entryX=1;entryY=0.5;entryDx=0;entryDy=0;fontSize=20;" edge="1" parent="1" source="6P-eKquRAxCvKUDHWeDS-22" target="6P-eKquRAxCvKUDHWeDS-5">
          <mxGeometry relative="1" as="geometry" />
        </mxCell>
        <mxCell id="6P-eKquRAxCvKUDHWeDS-25" value="···" style="rounded=0;whiteSpace=wrap;html=1;fontSize=20;" vertex="1" parent="1">
          <mxGeometry x="960" y="210" width="120" height="60" as="geometry" />
        </mxCell>
        <mxCell id="6P-eKquRAxCvKUDHWeDS-26" value="···" style="rounded=0;whiteSpace=wrap;html=1;fontSize=20;" vertex="1" parent="1">
          <mxGeometry x="960" y="390" width="120" height="60" as="geometry" />
        </mxCell>
        <mxCell id="6P-eKquRAxCvKUDHWeDS-27" style="edgeStyle=orthogonalEdgeStyle;rounded=0;orthogonalLoop=1;jettySize=auto;html=1;exitX=0;exitY=0.5;exitDx=0;exitDy=0;entryX=1;entryY=0.5;entryDx=0;entryDy=0;fontSize=20;" edge="1" parent="1" source="6P-eKquRAxCvKUDHWeDS-25" target="6P-eKquRAxCvKUDHWeDS-5">
          <mxGeometry relative="1" as="geometry" />
        </mxCell>
        <mxCell id="6P-eKquRAxCvKUDHWeDS-30" value="在外键表中分页查寻，再去具体业务表查数据" style="text;html=1;strokeColor=none;fillColor=none;align=center;verticalAlign=middle;whiteSpace=wrap;rounded=0;fontSize=20;" vertex="1" parent="1">
          <mxGeometry x="460" y="170" width="160" height="70" as="geometry" />
        </mxCell>
        <mxCell id="6P-eKquRAxCvKUDHWeDS-38" style="edgeStyle=orthogonalEdgeStyle;rounded=0;orthogonalLoop=1;jettySize=auto;html=1;exitX=0.5;exitY=0;exitDx=0;exitDy=0;entryX=0.5;entryY=1.033;entryDx=0;entryDy=0;entryPerimeter=0;fontSize=20;" edge="1" parent="1" source="6P-eKquRAxCvKUDHWeDS-32" target="6P-eKquRAxCvKUDHWeDS-8">
          <mxGeometry relative="1" as="geometry" />
        </mxCell>
        <mxCell id="6P-eKquRAxCvKUDHWeDS-32" value="问答表" style="rounded=0;whiteSpace=wrap;html=1;fontSize=20;" vertex="1" parent="1">
          <mxGeometry x="480" y="650" width="120" height="60" as="geometry" />
        </mxCell>
        <mxCell id="6P-eKquRAxCvKUDHWeDS-40" style="edgeStyle=orthogonalEdgeStyle;rounded=0;orthogonalLoop=1;jettySize=auto;html=1;exitX=0.5;exitY=0;exitDx=0;exitDy=0;fontSize=20;" edge="1" parent="1" source="6P-eKquRAxCvKUDHWeDS-33">
          <mxGeometry relative="1" as="geometry">
            <mxPoint x="540" y="440" as="targetPoint" />
          </mxGeometry>
        </mxCell>
        <mxCell id="6P-eKquRAxCvKUDHWeDS-33" value="文章表" style="rounded=0;whiteSpace=wrap;html=1;fontSize=20;" vertex="1" parent="1">
          <mxGeometry x="220" y="650" width="120" height="60" as="geometry" />
        </mxCell>
        <mxCell id="6P-eKquRAxCvKUDHWeDS-43" style="edgeStyle=orthogonalEdgeStyle;rounded=0;orthogonalLoop=1;jettySize=auto;html=1;exitX=0.5;exitY=0;exitDx=0;exitDy=0;fontSize=20;" edge="1" parent="1" source="6P-eKquRAxCvKUDHWeDS-34">
          <mxGeometry relative="1" as="geometry">
            <mxPoint x="540" y="440" as="targetPoint" />
          </mxGeometry>
        </mxCell>
        <mxCell id="6P-eKquRAxCvKUDHWeDS-34" value="驿视频表" style="rounded=0;whiteSpace=wrap;html=1;fontSize=20;" vertex="1" parent="1">
          <mxGeometry x="740" y="650" width="120" height="60" as="geometry" />
        </mxCell>
        <mxCell id="6P-eKquRAxCvKUDHWeDS-41" style="edgeStyle=orthogonalEdgeStyle;rounded=0;orthogonalLoop=1;jettySize=auto;html=1;exitX=0.5;exitY=0;exitDx=0;exitDy=0;fontSize=20;" edge="1" parent="1" source="6P-eKquRAxCvKUDHWeDS-35">
          <mxGeometry relative="1" as="geometry">
            <mxPoint x="540" y="440" as="targetPoint" />
          </mxGeometry>
        </mxCell>
        <mxCell id="6P-eKquRAxCvKUDHWeDS-35" value="···" style="rounded=0;whiteSpace=wrap;html=1;fontSize=20;" vertex="1" parent="1">
          <mxGeometry x="350" y="650" width="120" height="60" as="geometry" />
        </mxCell>
        <mxCell id="6P-eKquRAxCvKUDHWeDS-42" style="edgeStyle=orthogonalEdgeStyle;rounded=0;orthogonalLoop=1;jettySize=auto;html=1;exitX=0.5;exitY=0;exitDx=0;exitDy=0;fontSize=20;" edge="1" parent="1" source="6P-eKquRAxCvKUDHWeDS-36">
          <mxGeometry relative="1" as="geometry">
            <mxPoint x="540" y="440" as="targetPoint" />
          </mxGeometry>
        </mxCell>
        <mxCell id="6P-eKquRAxCvKUDHWeDS-45" value="业务表发生变动同步修改&lt;br&gt;外键表" style="edgeLabel;html=1;align=center;verticalAlign=middle;resizable=0;points=[];fontSize=20;" vertex="1" connectable="0" parent="6P-eKquRAxCvKUDHWeDS-42">
          <mxGeometry x="0.8059" y="-1" relative="1" as="geometry">
            <mxPoint x="-1" y="27" as="offset" />
          </mxGeometry>
        </mxCell>
        <mxCell id="6P-eKquRAxCvKUDHWeDS-36" value="···" style="rounded=0;whiteSpace=wrap;html=1;fontSize=20;" vertex="1" parent="1">
          <mxGeometry x="610" y="650" width="120" height="60" as="geometry" />
        </mxCell>
        <mxCell id="6P-eKquRAxCvKUDHWeDS-15" style="edgeStyle=orthogonalEdgeStyle;rounded=0;orthogonalLoop=1;jettySize=auto;html=1;fontSize=20;exitX=0;exitY=0.5;exitDx=0;exitDy=0;" edge="1" parent="1" source="6P-eKquRAxCvKUDHWeDS-5" target="6P-eKquRAxCvKUDHWeDS-9">
          <mxGeometry relative="1" as="geometry" />
        </mxCell>
        <mxCell id="6P-eKquRAxCvKUDHWeDS-28" style="edgeStyle=orthogonalEdgeStyle;rounded=0;orthogonalLoop=1;jettySize=auto;html=1;exitX=0;exitY=0.5;exitDx=0;exitDy=0;entryX=1;entryY=0.5;entryDx=0;entryDy=0;fontSize=20;" edge="1" parent="1" source="6P-eKquRAxCvKUDHWeDS-26" target="6P-eKquRAxCvKUDHWeDS-5">
          <mxGeometry relative="1" as="geometry" />
        </mxCell>
      </root>
    </mxGraphModel>
  </diagram>
</mxfile>
